<?xml version="1.0" encoding="UTF-8"?>
<svg xmlns="http://www.w3.org/2000/svg" width="125" height="56" viewBox="0 0 125 56" fill="none">
  <path d="M109.357 29.046C108.08 28.5144 106.921 27.7354 105.945 26.7542C104.97 25.7744 104.192 24.6165 103.651 23.3437C102.538 20.7033 102.538 17.7234 103.651 15.083C105.358 11.1484 109.234 8.60787 113.514 8.61924C114.948 8.60787 116.369 8.88946 117.691 9.44884C118.959 9.98675 120.116 10.7557 121.105 11.7167C122.091 12.6751 122.88 13.8178 123.428 15.0818C124.541 17.7221 124.541 20.7021 123.428 23.3424C122.883 24.619 122.096 25.7769 121.11 26.753C120.128 27.7278 118.968 28.5056 117.695 29.0448C115.027 30.1497 112.03 30.1497 109.362 29.0448L109.357 29.046ZM110.981 13.3291C109.426 13.9655 108.182 15.1891 107.519 16.7372C107.183 17.5226 107.011 18.3699 107.018 19.2247C107.003 21.8322 108.573 24.1846 110.983 25.1645C112.606 25.8274 114.423 25.8274 116.044 25.1645C117.608 24.5306 118.855 23.2944 119.506 21.7337C119.841 20.9407 120.012 20.0871 120.007 19.2247C120.013 18.3699 119.842 17.5226 119.506 16.7372C118.843 15.1891 117.599 13.9655 116.044 13.3291C114.42 12.6687 112.605 12.6687 110.981 13.3291ZM94.3622 29.7809V8.52075H98.5639V29.7809H94.3622ZM75.1164 28.9526C72.5314 27.873 70.4677 25.8261 69.3622 23.2477C68.2491 20.6074 68.2491 17.6274 69.3622 14.9871C69.9087 13.7244 70.6956 12.5816 71.6803 11.6232C72.6737 10.656 73.8397 9.88447 75.1177 9.35034C76.4335 8.79602 77.8462 8.51443 79.2728 8.52075H85.7196V0H89.9691V19.1275C89.9767 20.5442 89.6908 21.9471 89.1318 23.2477C88.5929 24.5192 87.816 25.6771 86.8465 26.6583C83.7553 29.7203 79.133 30.6244 75.1215 28.9501L75.1164 28.9526ZM76.742 13.2332C75.1869 13.8696 73.9429 15.0931 73.2794 16.6412C72.9432 17.4254 72.7719 18.2714 72.7782 19.1262C72.7719 20.841 73.4506 22.4875 74.6631 23.6972C75.26 24.2869 75.9651 24.7541 76.7407 25.071C77.5428 25.4019 78.4027 25.5711 79.2703 25.566C80.1315 25.5711 80.984 25.4031 81.7785 25.071C82.544 24.7491 83.2416 24.2819 83.8321 23.6972C85.0459 22.4875 85.7246 20.8422 85.7196 19.1262V12.7357H79.2741C78.404 12.7306 77.544 12.8998 76.742 13.2332ZM49.4717 28.9526C48.195 28.421 47.0353 27.6419 46.0595 26.6608C45.0862 25.6809 44.308 24.523 43.7679 23.2502C43.2075 21.9496 42.923 20.5468 42.9305 19.13V8.52075H47.1814V19.125C47.1763 20.8397 47.855 22.4863 49.0675 23.696C49.6581 24.2819 50.3556 24.7478 51.1212 25.0698C51.9157 25.4019 52.7681 25.5711 53.6294 25.5648C54.4982 25.5686 55.3581 25.4006 56.1615 25.0698C56.9358 24.7516 57.6422 24.2844 58.239 23.696C59.4516 22.4863 60.1303 20.8397 60.1252 19.125V8.52075H64.3773V19.125C64.3849 20.5417 64.1003 21.9446 63.5412 23.2452C62.996 24.5218 62.2091 25.6797 61.2232 26.6557C60.2411 27.6306 59.0839 28.4084 57.8109 28.9476C55.1416 30.0524 52.1448 30.0524 49.4768 28.9476L49.4717 28.9526ZM36.3919 29.7809C34.9653 29.7885 33.5525 29.5069 32.238 28.9513C30.955 28.416 29.7877 27.6381 28.7993 26.6595C27.8122 25.6835 27.0252 24.5243 26.48 23.2464C25.9209 21.9458 25.6364 20.543 25.6427 19.1262V0H29.8922V8.60535H38.4896V12.8177H29.8922V19.1262C29.8885 20.841 30.5684 22.4863 31.7797 23.6972C32.3765 24.2869 33.0816 24.7541 33.8572 25.071C34.6593 25.4019 35.5193 25.5711 36.3868 25.566H38.4883V29.7797L36.3919 29.7809Z" fill="white"></path>
  <path d="M19.4603 12.7368H6.35522V8.52441H19.459V12.7368H19.4603Z" fill="url(#paint0_linear_1_5710)"></path>
  <path d="M6.40439 12.7365C5.834 12.7252 5.28376 12.9474 4.88084 13.3527C4.47162 13.748 4.24624 14.2985 4.26009 14.868C4.25001 15.4438 4.47414 15.9994 4.88084 16.406C5.27746 16.8227 5.83022 17.0537 6.40439 17.0424H15.003C15.863 17.0361 16.7167 17.2053 17.5099 17.5386C18.2704 17.8581 18.9667 18.3152 19.5636 18.8872C21.4107 20.7093 21.9597 23.4784 20.9473 25.8712C20.6212 26.6339 20.1516 27.3258 19.5636 27.9092C18.973 28.4939 18.2755 28.9598 17.5099 29.2818C16.7167 29.6151 15.863 29.7843 15.003 29.778H2.10572V25.5656H15.003C15.5897 25.5846 16.1589 25.3623 16.5794 24.9507C16.9937 24.5391 17.2178 23.9721 17.1989 23.3875C17.2115 22.818 16.9861 22.2687 16.5794 21.8722C16.1601 21.4593 15.591 21.2371 15.003 21.2573H6.4069C5.54566 21.2636 4.69323 21.0944 3.89997 20.7598C3.1382 20.4428 2.44694 19.9756 1.86774 19.3872C1.29106 18.7988 0.830216 18.1081 0.506619 17.3492C-0.860796 14.1268 0.63505 10.4018 3.84835 9.02923C4.65545 8.68451 5.52551 8.51278 6.40313 8.52288V12.7365H6.40439Z" fill="#2943BD"></path>
  <path d="M25.6636 47.7748C25.6636 47.0533 25.8645 46.4256 26.2662 45.8917C26.6824 45.3434 27.2492 44.9249 27.9666 44.6363C28.6841 44.3333 29.5163 44.1817 30.4634 44.1817C30.9656 44.1817 31.475 44.2178 31.9915 44.29C32.5225 44.3621 32.9888 44.4776 33.3906 44.6363V43.922C33.3906 43.1284 33.1538 42.5079 32.6803 42.0605C32.2068 41.6132 31.5252 41.3895 30.6355 41.3895C30.0042 41.3895 29.4087 41.505 28.8491 41.7359C28.2895 41.9523 27.694 42.2626 27.0626 42.6666L26.2662 41.0649C27.0124 40.5598 27.7585 40.1846 28.5047 39.9393C29.2652 39.694 30.0616 39.5714 30.8938 39.5714C32.4005 39.5714 33.5843 39.9754 34.4452 40.7835C35.3205 41.5771 35.7582 42.7099 35.7582 44.1817V48.4025C35.7582 48.6767 35.8012 48.8715 35.8873 48.9869C35.9878 49.1024 36.1528 49.1673 36.3824 49.1817V51.0865C36.1671 51.1298 35.9734 51.1587 35.8012 51.1731C35.629 51.1875 35.4856 51.1947 35.3708 51.1947C34.8685 51.1947 34.4883 51.0721 34.23 50.8268C33.9717 50.5815 33.8211 50.2929 33.778 49.961L33.7134 49.3116C33.2256 49.9465 32.6014 50.4372 31.8409 50.7835C31.0804 51.1298 30.3127 51.303 29.5378 51.303C28.7917 51.303 28.1244 51.1514 27.5361 50.8484C26.9478 50.531 26.4886 50.1053 26.1586 49.5714C25.8286 49.0374 25.6636 48.4386 25.6636 47.7748ZM32.831 48.4675C33.0032 48.2799 33.1395 48.0923 33.2399 47.9047C33.3404 47.7171 33.3906 47.5512 33.3906 47.4069V46.1082C32.9888 45.9494 32.5655 45.834 32.1207 45.7618C31.6759 45.6753 31.2382 45.632 30.8077 45.632C29.9468 45.632 29.2437 45.8051 28.6984 46.1514C28.1675 46.4978 27.902 46.974 27.902 47.58C27.902 47.9119 27.9881 48.2294 28.1603 48.5324C28.3469 48.8354 28.6051 49.0807 28.9352 49.2683C29.2796 49.4559 29.7029 49.5497 30.2051 49.5497C30.7216 49.5497 31.2167 49.4487 31.6902 49.2467C32.1637 49.0447 32.544 48.7849 32.831 48.4675Z" fill="white"></path>
  <path d="M44.5926 51.303C43.7174 51.303 42.921 51.1514 42.2035 50.8484C41.5004 50.531 40.8906 50.0981 40.374 49.5497C39.8574 49.0014 39.4557 48.3737 39.1687 47.6666C38.896 46.9595 38.7597 46.2092 38.7597 45.4155C38.7597 44.3477 38.9965 43.3737 39.47 42.4934C39.9579 41.6132 40.6323 40.9061 41.4932 40.3722C42.3685 39.8383 43.4017 39.5714 44.5926 39.5714C45.7406 39.5714 46.7378 39.8311 47.5844 40.3506C48.4454 40.8556 49.0767 41.5338 49.4785 42.3852L47.1755 43.1211C46.9172 42.645 46.5513 42.277 46.0778 42.0172C45.6186 41.7431 45.1092 41.606 44.5496 41.606C43.9182 41.606 43.3443 41.7719 42.8277 42.1038C42.3255 42.4213 41.9237 42.8686 41.6224 43.4458C41.3354 44.0086 41.1919 44.6652 41.1919 45.4155C41.1919 46.137 41.3426 46.7936 41.6439 47.3852C41.9452 47.9624 42.347 48.4242 42.8492 48.7705C43.3658 49.1024 43.9398 49.2683 44.5711 49.2683C44.9586 49.2683 45.3316 49.2034 45.6904 49.0735C46.0634 48.9292 46.3863 48.7416 46.6589 48.5108C46.9316 48.2654 47.1253 47.9985 47.2401 47.7099L49.5646 48.4025C49.3207 48.9653 48.9548 49.4631 48.4669 49.896C47.9934 50.3289 47.4266 50.6753 46.7665 50.935C46.1208 51.1803 45.3962 51.303 44.5926 51.303Z" fill="white"></path>
  <path d="M51.5576 47.7748C51.5576 47.0533 51.7585 46.4256 52.1602 45.8917C52.5764 45.3434 53.1432 44.9249 53.8606 44.6363C54.5781 44.3333 55.4103 44.1817 56.3574 44.1817C56.8596 44.1817 57.369 44.2178 57.8855 44.29C58.4165 44.3621 58.8828 44.4776 59.2846 44.6363V43.922C59.2846 43.1284 59.0478 42.5079 58.5743 42.0605C58.1008 41.6132 57.4192 41.3895 56.5296 41.3895C55.8982 41.3895 55.3027 41.505 54.7431 41.7359C54.1835 41.9523 53.588 42.2626 52.9566 42.6666L52.1602 41.0649C52.9064 40.5598 53.6526 40.1846 54.3987 39.9393C55.1592 39.694 55.9556 39.5714 56.7878 39.5714C58.2945 39.5714 59.4783 39.9754 60.3392 40.7835C61.2145 41.5771 61.6522 42.7099 61.6522 44.1817V48.4025C61.6522 48.6767 61.6952 48.8715 61.7813 48.9869C61.8818 49.1024 62.0468 49.1673 62.2764 49.1817V51.0865C62.0611 51.1298 61.8674 51.1587 61.6952 51.1731C61.523 51.1875 61.3796 51.1947 61.2648 51.1947C60.7625 51.1947 60.3823 51.0721 60.124 50.8268C59.8657 50.5815 59.7151 50.2929 59.672 49.961L59.6074 49.3116C59.1196 49.9465 58.4954 50.4372 57.7349 50.7835C56.9744 51.1298 56.2067 51.303 55.4318 51.303C54.6857 51.303 54.0185 51.1514 53.4301 50.8484C52.8418 50.531 52.3827 50.1053 52.0526 49.5714C51.7226 49.0374 51.5576 48.4386 51.5576 47.7748ZM58.725 48.4675C58.8972 48.2799 59.0335 48.0923 59.1339 47.9047C59.2344 47.7171 59.2846 47.5512 59.2846 47.4069V46.1082C58.8828 45.9494 58.4595 45.834 58.0147 45.7618C57.5699 45.6753 57.1322 45.632 56.7017 45.632C55.8408 45.632 55.1377 45.8051 54.5924 46.1514C54.0615 46.4978 53.796 46.974 53.796 47.58C53.796 47.9119 53.8821 48.2294 54.0543 48.5324C54.2409 48.8354 54.4992 49.0807 54.8292 49.2683C55.1736 49.4559 55.5969 49.5497 56.0991 49.5497C56.6156 49.5497 57.1107 49.4487 57.5842 49.2467C58.0577 49.0447 58.438 48.7849 58.725 48.4675Z" fill="white"></path>
  <path d="M64.6753 45.4372C64.6753 44.3549 64.8905 43.3737 65.321 42.4934C65.7658 41.5988 66.3685 40.8917 67.129 40.3722C67.8895 39.8383 68.7648 39.5714 69.7548 39.5714C70.6158 39.5714 71.3906 39.795 72.0794 40.2424C72.7825 40.6897 73.3278 41.2452 73.7152 41.909V35.2856H76.0828V48.4025C76.0828 48.6767 76.133 48.8715 76.2335 48.9869C76.3339 49.1024 76.4989 49.1673 76.7285 49.1817V51.0865C76.2837 51.1587 75.9393 51.1947 75.6954 51.1947C75.2506 51.1947 74.8703 51.0649 74.5546 50.8051C74.2533 50.5454 74.0955 50.2351 74.0811 49.8744L74.0596 49.0302C73.6291 49.7517 73.048 50.3145 72.3162 50.7185C71.5844 51.1082 70.8239 51.303 70.0347 51.303C69.2598 51.303 68.5423 51.1514 67.8823 50.8484C67.2366 50.5454 66.6698 50.1197 66.1819 49.5714C65.7084 49.023 65.3353 48.3953 65.0627 47.6882C64.8044 46.9812 64.6753 46.2308 64.6753 45.4372ZM73.7152 47.0172V44.0519C73.5574 43.5901 73.2991 43.1789 72.9404 42.8181C72.596 42.4429 72.2014 42.1471 71.7566 41.9307C71.3261 41.7142 70.8956 41.606 70.4651 41.606C69.9629 41.606 69.5037 41.7142 69.0876 41.9307C68.6858 42.1471 68.3343 42.4357 68.033 42.7965C67.746 43.1572 67.5236 43.5685 67.3657 44.0302C67.2079 44.492 67.129 44.9754 67.129 45.4804C67.129 45.9999 67.2151 46.4905 67.3872 46.9523C67.5594 47.3996 67.8034 47.8037 68.119 48.1644C68.4491 48.5108 68.8222 48.7849 69.2383 48.9869C69.6688 49.1745 70.1351 49.2683 70.6373 49.2683C70.953 49.2683 71.2687 49.2106 71.5844 49.0952C71.9144 48.9797 72.2229 48.821 72.5099 48.619C72.8112 48.417 73.0623 48.1789 73.2632 47.9047C73.4784 47.6305 73.6291 47.3347 73.7152 47.0172Z" fill="white"></path>
  <path d="M85.0521 51.303C84.1768 51.303 83.3805 51.1514 82.663 50.8484C81.9599 50.531 81.3501 50.1053 80.8335 49.5714C80.3169 49.023 79.9152 48.4025 79.6282 47.7099C79.3555 47.0028 79.2192 46.2525 79.2192 45.4588C79.2192 44.391 79.4632 43.417 79.951 42.5367C80.4389 41.6421 81.1205 40.9278 81.9958 40.3939C82.8711 39.8455 83.897 39.5714 85.0737 39.5714C86.2503 39.5714 87.2619 39.8455 88.1085 40.3939C88.9695 40.9278 89.6367 41.6348 90.1102 42.5151C90.5837 43.3953 90.8205 44.3405 90.8205 45.3506C90.8205 45.5237 90.8133 45.6897 90.799 45.8484C90.7846 45.9927 90.7703 46.1154 90.7559 46.2164H81.7375C81.7805 46.8802 81.9599 47.4646 82.2756 47.9696C82.6056 48.4602 83.0217 48.8499 83.524 49.1385C84.0262 49.4126 84.5643 49.5497 85.1382 49.5497C85.7696 49.5497 86.3651 49.391 86.9247 49.0735C87.4987 48.7561 87.8861 48.3376 88.087 47.8181L90.1102 48.4025C89.8663 48.9509 89.4932 49.4487 88.991 49.896C88.5031 50.3289 87.922 50.6753 87.2476 50.935C86.5732 51.1803 85.8413 51.303 85.0521 51.303ZM81.6729 44.6363H88.4744C88.4314 43.9869 88.2448 43.417 87.9148 42.9263C87.5991 42.4213 87.1902 42.0317 86.6879 41.7575C86.2001 41.4689 85.6548 41.3246 85.0521 41.3246C84.4638 41.3246 83.9186 41.4689 83.4163 41.7575C82.9285 42.0317 82.5267 42.4213 82.211 42.9263C81.8953 43.417 81.716 43.9869 81.6729 44.6363Z" fill="white"></path>
  <path d="M110.832 51.0865H108.464V44.7445C108.464 43.6911 108.292 42.9191 107.947 42.4285C107.603 41.9379 107.101 41.6926 106.441 41.6926C105.781 41.6926 105.164 41.9451 104.59 42.4501C104.03 42.9408 103.636 43.5829 103.406 44.3766V51.0865H101.038V44.7445C101.038 43.6911 100.866 42.9191 100.522 42.4285C100.177 41.9379 99.6824 41.6926 99.0367 41.6926C98.3766 41.6926 97.7596 41.9379 97.1856 42.4285C96.626 42.9191 96.2242 43.5613 95.9803 44.3549V51.0865H93.6127V39.7662H95.7651V42.0389C96.2099 41.2452 96.791 40.6392 97.5085 40.2207C98.2403 39.7878 99.0725 39.5714 100.005 39.5714C100.938 39.5714 101.67 39.8167 102.201 40.3073C102.746 40.7979 103.083 41.4112 103.212 42.1471C103.7 41.3102 104.296 40.6753 104.999 40.2424C105.716 39.795 106.534 39.5714 107.452 39.5714C108.112 39.5714 108.665 39.694 109.11 39.9393C109.555 40.1846 109.899 40.5237 110.143 40.9566C110.387 41.3751 110.559 41.8657 110.659 42.4285C110.774 42.9768 110.832 43.5613 110.832 44.1817V51.0865Z" fill="white"></path>
  <path d="M114.598 53.7488C114.813 53.7777 115.021 53.8066 115.222 53.8354C115.438 53.8787 115.61 53.9004 115.739 53.9004C115.983 53.9004 116.191 53.821 116.363 53.6623C116.55 53.518 116.736 53.2438 116.923 52.8398C117.109 52.4357 117.339 51.8513 117.611 51.0865L112.984 39.7662H115.459L118.903 48.6623L121.959 39.7662H124.241L119.14 53.7056C118.982 54.124 118.752 54.5064 118.451 54.8527C118.15 55.2135 117.776 55.4949 117.332 55.6969C116.887 55.8989 116.363 55.9999 115.76 55.9999C115.588 55.9999 115.409 55.9855 115.222 55.9566C115.036 55.9278 114.828 55.8845 114.598 55.8268V53.7488Z" fill="white"></path>
  <defs>
    <linearGradient id="paint0_linear_1_5710" x1="19.4507" y1="10.6708" x2="6.58966" y2="9.95059" gradientUnits="userSpaceOnUse">
      <stop stop-color="#2943BD" stop-opacity="0"></stop>
      <stop offset="0.39" stop-color="#2943BD" stop-opacity="0.4"></stop>
      <stop offset="1" stop-color="#2943BD"></stop>
    </linearGradient>
  </defs>
</svg>
